<svg id="visual" viewBox="0 0 1980 1080" width="1980" height="1080" xmlns="http://www.w3.org/2000/svg" xmlns:xlink="http://www.w3.org/1999/xlink" version="1.1"><rect x="0" y="0" width="1980" height="1080" fill="#ff0000"></rect><defs><linearGradient id="grad1_0" x1="45.5%" y1="0%" x2="100%" y2="100%"><stop offset="13.333333333333334%" stop-color="#780202" stop-opacity="1"></stop><stop offset="86.66666666666667%" stop-color="#780202" stop-opacity="1"></stop></linearGradient></defs><defs><linearGradient id="grad1_1" x1="45.5%" y1="0%" x2="100%" y2="100%"><stop offset="13.333333333333334%" stop-color="#780202" stop-opacity="1"></stop><stop offset="86.66666666666667%" stop-color="#b90006" stop-opacity="1"></stop></linearGradient></defs><defs><linearGradient id="grad1_2" x1="45.5%" y1="0%" x2="100%" y2="100%"><stop offset="13.333333333333334%" stop-color="#ff0000" stop-opacity="1"></stop><stop offset="86.66666666666667%" stop-color="#b90006" stop-opacity="1"></stop></linearGradient></defs><defs><linearGradient id="grad2_0" x1="0%" y1="0%" x2="54.5%" y2="100%"><stop offset="13.333333333333334%" stop-color="#780202" stop-opacity="1"></stop><stop offset="86.66666666666667%" stop-color="#780202" stop-opacity="1"></stop></linearGradient></defs><defs><linearGradient id="grad2_1" x1="0%" y1="0%" x2="54.5%" y2="100%"><stop offset="13.333333333333334%" stop-color="#b90006" stop-opacity="1"></stop><stop offset="86.66666666666667%" stop-color="#780202" stop-opacity="1"></stop></linearGradient></defs><defs><linearGradient id="grad2_2" x1="0%" y1="0%" x2="54.5%" y2="100%"><stop offset="13.333333333333334%" stop-color="#b90006" stop-opacity="1"></stop><stop offset="86.66666666666667%" stop-color="#ff0000" stop-opacity="1"></stop></linearGradient></defs><g transform="translate(1980, 0)"><path d="M0 864C-162.1 847.7 -324.1 831.5 -432 748.2C-539.9 665 -593.5 514.9 -656.4 379C-719.4 243.1 -791.7 121.6 -864 0L0 0Z" fill="#dc0004"></path><path d="M0 576C-108 565.2 -216.1 554.3 -288 498.8C-359.9 443.4 -395.7 343.2 -437.6 252.7C-479.6 162.1 -527.8 81 -576 0L0 0Z" fill="#980106"></path><path d="M0 288C-54 282.6 -108 277.2 -144 249.4C-180 221.7 -197.8 171.6 -218.8 126.3C-239.8 81 -263.9 40.5 -288 0L0 0Z" fill="#780202"></path></g><g transform="translate(0, 1080)"><path d="M0 -864C151.3 -841.5 302.7 -819.1 432 -748.2C561.3 -677.4 668.7 -558.3 737 -425.5C805.3 -292.7 834.7 -146.4 864 0L0 0Z" fill="#dc0004"></path><path d="M0 -576C100.9 -561 201.8 -546 288 -498.8C374.2 -451.6 445.8 -372.2 491.3 -283.7C536.9 -195.2 556.4 -97.6 576 0L0 0Z" fill="#980106"></path><path d="M0 -288C50.4 -280.5 100.9 -273 144 -249.4C187.1 -225.8 222.9 -186.1 245.7 -141.8C268.4 -97.6 278.2 -48.8 288 0L0 0Z" fill="#780202"></path></g></svg>