<svg id="Capa_1" data-name="Capa 1" xmlns="http://www.w3.org/2000/svg" viewBox="0 0 277.56 95.89"><defs><style>.cls-1{font-size:12px;fill:#fff;stroke:#000;stroke-miterlimit:10;font-family:MyriadPro-Regular, Myriad Pro;}.cls-2{fill:#fdca32;}.cls-3{fill:#3c5fa6;}</style></defs><text class="cls-1" transform="translate(118.35 92.39)"> </text><path class="cls-2" d="M183.84,177.81c-5.92-7.52-12.15-14.94-18.55-22.1-.16.43-.26.7-.31.82l-.24.58-.85.34h-.3c-.71,0-1.12-.43-1.86-1.19-.49-.51-1.16-1.21-2-2.12s-1.78-1.88-2.82-3c-1.35-1.4-1.8-1.79-1.93-1.9l-1.39-1.13,1.35-1.17c1.46-1.26,2.91-2.5,4.34-3.67s2.9-2.3,4.47-3.42a55.58,55.58,0,0,1,4.75-3.05A25.77,25.77,0,0,1,172.4,135a33.09,33.09,0,0,1,4.59-1.42,13.51,13.51,0,0,1,2.2-.18c.46,0,.93,0,1.39.07a10.22,10.22,0,0,1,6.47,3.22,4.6,4.6,0,0,1,1,1.71c.63,1.91.39,4.45-.72,7.77a73.24,73.24,0,0,1-3.23,8.13c-.92,1.91-1.6,3.32-2.13,4.36,3.14,4.36,4.82,6.75,8,11.42l.56.82-.54.84c-1.52,2.36-2.25,3.52-3.7,5.89l-1.13,1.84Zm-9.66-29.51,1.87,2.53c.27-.69.57-1.47.9-2.35a15.31,15.31,0,0,0,.67-2.18l-.51.16A7.5,7.5,0,0,0,174.18,148.3Z" transform="translate(-151.25 -110.3)"/><path class="cls-3" d="M179.19,134.93a10.31,10.31,0,0,1,1.24.07,8.58,8.58,0,0,1,3,.85,8.76,8.76,0,0,1,2.54,1.9,3,3,0,0,1,.67,1.14c.52,1.62.26,3.89-.72,6.84a70.74,70.74,0,0,1-3.17,8c-1.12,2.36-1.95,4.07-2.52,5.13,3.47,4.83,5.18,7.26,8.53,12.15-1.52,2.36-2.27,3.54-3.72,5.92-6.47-8.21-13.26-16.26-20.26-24a2.36,2.36,0,0,0-.25.57l-.51,1.42c-.21.59-.35,1-.4,1.09h0a4.82,4.82,0,0,1-.78-.73c-.49-.5-1.15-1.21-2-2.11s-1.79-1.89-2.85-3a27.7,27.7,0,0,0-2.06-2c1.51-1.32,3-2.53,4.31-3.65s2.82-2.24,4.39-3.36,3.12-2.11,4.62-3a24.85,24.85,0,0,1,3.69-1.71,30.76,30.76,0,0,1,4.32-1.35,11.66,11.66,0,0,1,1.95-.16m-2.78,18.95c.54-1.22,1.18-2.85,1.94-4.88s1-3.39.78-4.09a.44.44,0,0,0-.42-.35h-.09a9.46,9.46,0,0,0-2,.48,8.39,8.39,0,0,0-4.31,3.23c1.67,2.23,2.49,3.35,4.12,5.6m2.78-21.95a15.25,15.25,0,0,0-2.44.2,29.16,29.16,0,0,0-4.86,1.49,27.5,27.5,0,0,0-4.15,1.93,56.87,56.87,0,0,0-4.87,3.13c-1.6,1.13-3.13,2.31-4.56,3.48s-2.9,2.43-4.36,3.7l-2.7,2.34,2.77,2.25s.41.35,1.8,1.78c1,1.07,2,2.06,2.81,3s1.53,1.62,2,2.13a4,4,0,0,0,2.94,1.65h.6l.56-.24.89-.36c5.86,6.62,11.58,13.46,17,20.37l2.67,3.39,2.25-3.68c1.45-2.37,2.17-3.51,3.68-5.85l1.08-1.68-1.13-1.65c-3-4.41-4.68-6.79-7.5-10.71.47-.94,1-2.12,1.73-3.58a72.64,72.64,0,0,0,3.3-8.29c1.23-3.69,1.46-6.46.73-8.71a6.06,6.06,0,0,0-1.31-2.25,11.69,11.69,0,0,0-7.42-3.71c-.52,0-1-.08-1.55-.08Z" transform="translate(-151.25 -110.3)"/><path class="cls-2" d="M201.68,171.65H201a10.92,10.92,0,0,1-3.58-.8,13,13,0,0,1-4.79-3.84,18.71,18.71,0,0,1-3.18-5.84,13.8,13.8,0,0,1,.22-10.45,20.66,20.66,0,0,1,4.29-6.26,14,14,0,0,1,5.87-3.44,14.38,14.38,0,0,1,3.81-.55,16.84,16.84,0,0,1,4,.53,8.59,8.59,0,0,1,3.74,1.93,11.58,11.58,0,0,1,2.54,3.26,17.19,17.19,0,0,1,1.49,3.92,20.85,20.85,0,0,1,.56,3.36,19.08,19.08,0,0,1,0,3.11,11,11,0,0,1-.52,2.7,24,24,0,0,1-2,4.54,18,18,0,0,1-2.55,3.5,14.83,14.83,0,0,1-2.91,2.41,12.59,12.59,0,0,1-3.15,1.45A11.51,11.51,0,0,1,201.68,171.65Zm-1.22-21.54a5.61,5.61,0,0,0-.64,1.72,3.26,3.26,0,0,0,.05,1.62,2.37,2.37,0,0,0,1.78,1.67,5.94,5.94,0,0,0,1.74.3h0a3.21,3.21,0,0,0,.9-.12,2.48,2.48,0,0,0,1.49-1.14,5.31,5.31,0,0,0,.77-2.15,4.15,4.15,0,0,1-1.88,1.19,3.8,3.8,0,0,1-.94.13,3.39,3.39,0,0,1-1-.17l-.12,0a3.76,3.76,0,0,1-2-2.61C200.52,150.37,200.48,150.24,200.46,150.11Z" transform="translate(-151.25 -110.3)"/><path class="cls-3" d="M203.71,142a15.29,15.29,0,0,1,3.63.49,7.17,7.17,0,0,1,3.1,1.59,10.22,10.22,0,0,1,2.21,2.84,15.69,15.69,0,0,1,1.36,3.58,20.72,20.72,0,0,1,.52,3.12,18.42,18.42,0,0,1,0,2.87,9.53,9.53,0,0,1-.45,2.34,22.5,22.5,0,0,1-1.84,4.28,16.73,16.73,0,0,1-2.34,3.21,13.54,13.54,0,0,1-2.61,2.17,10.93,10.93,0,0,1-2.79,1.28,10,10,0,0,1-2.84.42h-.56a9.59,9.59,0,0,1-3.09-.68,11.51,11.51,0,0,1-4.2-3.4,17.27,17.27,0,0,1-2.93-5.37,12.37,12.37,0,0,1,.16-9.35,19.27,19.27,0,0,1,4-5.81,12.32,12.32,0,0,1,5.24-3.07,12.48,12.48,0,0,1,3.39-.5h0m-.32,15a5,5,0,0,0,1.31-.17A4,4,0,0,0,207,155a7,7,0,0,0,1.05-3.15,9.79,9.79,0,0,0-.25-3.4,7.81,7.81,0,0,0-.8-1.95,6.4,6.4,0,0,1-.78,3.36,3.47,3.47,0,0,1-2,1.92,2,2,0,0,1-.53.08,1.79,1.79,0,0,1-.57-.09,2.35,2.35,0,0,1-1.16-1.65,3.64,3.64,0,0,1,.08-2.18,4.44,4.44,0,0,1,1.64-2.13,7.07,7.07,0,0,0-2.59,1.32,7.84,7.84,0,0,0-1.86,2.07,6.88,6.88,0,0,0-.92,2.38,4.79,4.79,0,0,0,.09,2.33,3.86,3.86,0,0,0,2.76,2.68,7.57,7.57,0,0,0,2.19.36m.32-18h-.05a15.7,15.7,0,0,0-4.21.61,15.45,15.45,0,0,0-6.5,3.8,22.27,22.27,0,0,0-4.62,6.71,15.31,15.31,0,0,0-.27,11.56,20.24,20.24,0,0,0,3.43,6.31,14.56,14.56,0,0,0,5.31,4.24l0,0h0a12.12,12.12,0,0,0,4.08.91c.25,0,.49,0,.74,0a13.1,13.1,0,0,0,3.7-.54A14.51,14.51,0,0,0,208.9,171a16.44,16.44,0,0,0,3.19-2.64,19.42,19.42,0,0,0,2.77-3.79,26.33,26.33,0,0,0,2.1-4.85,12.56,12.56,0,0,0,.58-3,22.12,22.12,0,0,0,0-3.35,23,23,0,0,0-.6-3.61,18.79,18.79,0,0,0-1.63-4.26,12.85,12.85,0,0,0-2.87-3.67,10.18,10.18,0,0,0-4.37-2.27,18.24,18.24,0,0,0-4.34-.57Z" transform="translate(-151.25 -110.3)"/><path class="cls-2" d="M222,170.7c-3.41-12-6.94-24.21-10.48-36.19l-3.58,1.79L207.8,134c-.1-2.28-.15-3.42-.24-5.7l0-.8.65-.47c4.21-3.06,6.3-4.51,10.65-7.42l1.71-1.15.56,2c2.64,9.35,4,14.3,6.38,23,2.14-1.85,3.69-3.14,6.33-5.3l.4-.32h.52c2.86-.07,4.6-.09,6.66-.09h3.13l3.46,0-2.39,2.51c-3.91,4.11-6,6.38-9.3,10.25,4.13,2.22,6.59,3.63,11.05,6.3l.56.34.13.65c.74,3.57,1.1,5.36,1.82,8.93l.66,3.3-2.9-1.71c-6.1-3.6-9.58-5.53-15.2-8.34.63,2.52,1.13,4.52,1.91,7.67l.37,1.49-1.5.33c-3.8.85-5.64,1.29-9.4,2.25l-1.42.36Z" transform="translate(-151.25 -110.3)"/><path class="cls-3" d="M219.66,120.85c2.85,10.11,4.25,15.17,7,25.31,3.17-2.77,4.79-4.14,8.1-6.83,2.72-.07,4.5-.09,6.64-.09h3.11c-4.39,4.62-6.51,7-10.58,11.74,5.17,2.75,7.7,4.18,12.63,7.14.74,3.57,1.1,5.36,1.82,8.93-7-4.15-10.69-6.13-18.22-9.84,1.09,4.32,1.63,6.49,2.7,10.82-3.79.84-5.68,1.29-9.44,2.26q-5.38-19-11-37.91l-3.12,1.53c-.1-2.27-.15-3.41-.24-5.69,4.16-3,6.28-4.5,10.6-7.38m1.77-4.79L218,118.35c-4.31,2.88-6.51,4.42-10.69,7.45l-1.3,1,.06,1.6c.09,2.29.14,3.43.25,5.71l.21,4.61,4-2c3.39,11.44,6.74,23,10,34.46l.8,2.82,2.83-.73c3.74-1,5.58-1.39,9.35-2.23l3-.67-.74-3c-.44-1.76-.79-3.15-1.12-4.49,4,2.09,7.25,3.9,12.19,6.81l5.8,3.42-1.33-6.59c-.72-3.58-1.08-5.37-1.82-8.94l-.26-1.3-1.13-.67c-3.8-2.28-6.23-3.69-9.47-5.45,2.65-3,4.65-5.22,8-8.79l4.77-5-6.92-.06H241.4c-2.08,0-3.83,0-6.71.09l-1,0-.8.65c-1.84,1.5-3.18,2.61-4.55,3.78-2-7.35-3.36-12.23-5.76-20.75l-1.12-4Z" transform="translate(-151.25 -110.3)"/><path class="cls-2" d="M255,160.67a14.4,14.4,0,0,1-3.28-.36,8.54,8.54,0,0,1-4.36-2.35,13.28,13.28,0,0,1-3.45-7.54,21,21,0,0,1,.21-7.33,13.47,13.47,0,0,1,2.16-5.55,17.09,17.09,0,0,1,3.47-3.33,17.34,17.34,0,0,1,4.1-2.22,18,18,0,0,1,4.54-1.05,17.44,17.44,0,0,1,1.76-.09,16.43,16.43,0,0,1,4.26.55,14.2,14.2,0,0,1,5.2,2.59l1.11.89-.82,1.15c-1.82,2.58-3.25,4.62-4.57,6.57l1,1c2.3,2.47,3.41,3.7,5.65,6.23l.52.59-.19.77a8.63,8.63,0,0,1-3.14,4.48,21,21,0,0,1-5.53,3.19,25.13,25.13,0,0,1-6.44,1.65A20.32,20.32,0,0,1,255,160.67Zm1.16-19.49a3.63,3.63,0,0,0-1.16.47,2.05,2.05,0,0,0-.85.75,5,5,0,0,0-.7,3.23C254.38,144.09,255.17,142.78,256.18,141.18Z" transform="translate(-151.25 -110.3)"/><path class="cls-3" d="M260.17,132.35a15.1,15.1,0,0,1,3.87.5,12.6,12.6,0,0,1,4.66,2.32c-4.45,6.27-6.56,9.44-10.56,15.85a6.66,6.66,0,0,0,2.86-1,9.08,9.08,0,0,0,2.37-2.2,15.24,15.24,0,0,0,1.84-3.18c2.29,2.46,3.41,3.7,5.62,6.2a7.08,7.08,0,0,1-2.63,3.69,19.46,19.46,0,0,1-5.14,3,23.23,23.23,0,0,1-6.05,1.55,17.25,17.25,0,0,1-2,.12,13.21,13.21,0,0,1-3-.32,7,7,0,0,1-3.61-1.94,11.75,11.75,0,0,1-3.05-6.71,19.53,19.53,0,0,1,.2-6.81,12.28,12.28,0,0,1,1.87-4.92,15.81,15.81,0,0,1,6.92-5.07,16.26,16.26,0,0,1,4.16-1,14.59,14.59,0,0,1,1.61-.08m-7.1,16.9c2.19-3.74,3.32-5.6,5.65-9.31a4.72,4.72,0,0,0-1.78-.36,3.55,3.55,0,0,0-.46,0,5.28,5.28,0,0,0-2.23.75,3.58,3.58,0,0,0-1.42,1.35,6.51,6.51,0,0,0-.85,4.13,7.55,7.55,0,0,0,.34,1.49q.24.71.75,1.92m7.1-19.9c-.63,0-1.27,0-1.91.09a19.59,19.59,0,0,0-4.92,1.15,19,19,0,0,0-4.45,2.4,18.25,18.25,0,0,0-3.77,3.63,14.73,14.73,0,0,0-2.45,6.17,22.76,22.76,0,0,0-.23,7.85,14.83,14.83,0,0,0,3.87,8.37,10.14,10.14,0,0,0,5.09,2.77,16.88,16.88,0,0,0,3.62.39,20.92,20.92,0,0,0,2.33-.14,26.32,26.32,0,0,0,6.83-1.75,22.48,22.48,0,0,0,5.92-3.42,10.05,10.05,0,0,0,3.64-5.28l.38-1.53-1-1.18c-2.22-2.51-3.38-3.8-5.68-6.26l-.14-.15c1.14-1.66,2.37-3.42,3.89-5.56l1.64-2.31-2.22-1.77a15.68,15.68,0,0,0-5.76-2.87,18,18,0,0,0-4.64-.6Z" transform="translate(-151.25 -110.3)"/><path class="cls-2" d="M286.74,158.22c-.71,0-1.54,0-2.49,0h-.17c-1.44,0-2.58-.08-3.59-.19a9.78,9.78,0,0,1-2.73-.57l-.84-.34-.09-.91c-.82-9.17-1.7-18.47-2.61-27.66-4.72.3-7.47.54-12.6,1.08l-1.55.16-.78-11.85,1.35-.21A349.77,349.77,0,0,1,298,114l1.51-.06.06,1.5c.16,3.95.24,5.92.38,9.87l.06,1.46-1.47.09c-4.13.25-6.38.41-10.08.75.54,9.61,1.05,19.38,1.51,29.06l.08,1.55Z" transform="translate(-151.25 -110.3)"/><path class="cls-3" d="M298.11,115.46c.16,4,.24,5.92.38,9.86-4.64.28-6.95.46-11.57.89q.87,15.24,1.59,30.49h-1.78l-2.62,0c-1.26,0-2.42-.07-3.46-.18a8.9,8.9,0,0,1-2.32-.47q-1.31-14.55-2.76-29.11c-5.65.35-8.47.59-14.11,1.18-.23-3.57-.35-5.36-.59-8.93a344.49,344.49,0,0,1,37.24-3.71m2.88-3.13-3,.14a347.56,347.56,0,0,0-37.57,3.74l-2.71.42.18,2.74c.23,3.57.35,5.35.59,8.93l.21,3.1,3.1-.32c4.56-.48,7.23-.72,11.09-1,.86,8.71,1.69,17.51,2.47,26.2l.16,1.83,1.7.69a11.88,11.88,0,0,0,3.14.66c1.05.11,2.23.17,3.72.2h.23l2.44,0h1.81l3.12,0-.15-3.12c-.44-9.16-.92-18.43-1.43-27.62,2.89-.25,5-.4,8.59-.61l2.93-.18-.11-2.93c-.14-3.95-.22-5.92-.38-9.87l-.12-3Z" transform="translate(-151.25 -110.3)"/><path class="cls-2" d="M295.47,161c0-9.1,0-13.95-.08-22.5l-3.7.82.45-2.26c.45-2.24.68-3.35,1.14-5.58l.16-.78.73-.31c4.64-1.91,6.92-2.8,11.63-4.54l2-.74v2.15c0,11.11-.06,22.38-.14,33.49v1.47l-1.47,0c-3.69,0-5.49.1-9.17.26l-1.56.07Zm6.28-36.32a8,8,0,0,1-3.25-.74,5.83,5.83,0,0,1-2.36-2.09,6.3,6.3,0,0,1-1-3.1,8.17,8.17,0,0,1,1.24-4.44,5.14,5.14,0,0,1,4.38-2.51h.13a7.85,7.85,0,0,1,3.42.77,8,8,0,0,1,2.38,1.69,6.48,6.48,0,0,1,1.29,1.81,4.58,4.58,0,0,1,.33,2,7.11,7.11,0,0,1-.73,2.81,9.2,9.2,0,0,1-1.5,2.28,3.9,3.9,0,0,1-2.23,1.37,12.36,12.36,0,0,1-1.81.15Z" transform="translate(-151.25 -110.3)"/><path class="cls-3" d="M300.85,113.3a6.65,6.65,0,0,1,4.71,2,5.57,5.57,0,0,1,1,1.37,3.17,3.17,0,0,1,.22,1.35,5.83,5.83,0,0,1-.59,2.23,8,8,0,0,1-1.26,1.92,2.58,2.58,0,0,1-1.34.9,10.56,10.56,0,0,1-1.59.13h-.21a6.25,6.25,0,0,1-2.63-.59,4.31,4.31,0,0,1-1.77-1.56,4.88,4.88,0,0,1-.79-2.35,6.53,6.53,0,0,1,1-3.59,3.6,3.6,0,0,1,3.11-1.79h.11m5.47,14q0,16.74-.14,33.48c-3.69,0-5.53.1-9.21.26,0-9.74,0-14.62-.09-24.36l-3.26.71c.44-2.23.67-3.34,1.13-5.57,4.56-1.89,6.88-2.79,11.57-4.52m-5.47-17h-.16a6.6,6.6,0,0,0-5.63,3.24,9.53,9.53,0,0,0-1.46,5.28,8,8,0,0,0,1.27,3.84,7.31,7.31,0,0,0,3,2.62,8.77,8.77,0,0,0,3,.84c-2.27.87-4.3,1.69-7.2,2.89l-1.47.6-.32,1.56c-.46,2.24-.69,3.36-1.14,5.6l-.9,4.52,4.13-.93c0,7.47.05,12.19.07,20.64v3.13l3.13-.13c3.66-.16,5.45-.21,9.12-.26l2.94,0,0-2.94c.08-11.11.13-22.38.14-33.5V123l-1.66.61a11.42,11.42,0,0,0,1.24-2,8.73,8.73,0,0,0,.87-3.39,6,6,0,0,0-.45-2.65,7.92,7.92,0,0,0-1.58-2.26,9.37,9.37,0,0,0-2.82-2,9.47,9.47,0,0,0-4.07-.92Z" transform="translate(-151.25 -110.3)"/><path class="cls-2" d="M321.6,160c-.73,0-1.47,0-2.19-.1a16.18,16.18,0,0,1-5.28-1.33,8.62,8.62,0,0,1-3.78-3.2,13.31,13.31,0,0,1-1.83-8.08,21.31,21.31,0,0,1,1.7-7.13,13.49,13.49,0,0,1,3.25-5,17,17,0,0,1,4.07-2.56,17.8,17.8,0,0,1,4.47-1.33,17.61,17.61,0,0,1,2.72-.21,18.17,18.17,0,0,1,1.94.11,16.71,16.71,0,0,1,5.79,1.68,14.24,14.24,0,0,1,4.57,3.6l.91,1.09-1,1c-2.32,2.15-4.13,3.85-5.82,5.5l.72,1.19c1.75,2.9,2.59,4.32,4.27,7.26l.39.69-.35.71a8.71,8.71,0,0,1-4,3.75,21.22,21.22,0,0,1-6.07,2A25.13,25.13,0,0,1,321.6,160Zm.78-19.26a4,4,0,0,0-1.22.23,2,2,0,0,0-1,.56,5,5,0,0,0-1.34,3C320,143.21,321.08,142.09,322.38,140.72Z" transform="translate(-151.25 -110.3)"/><path class="cls-3" d="M324.73,132.55a16.17,16.17,0,0,1,7.06,1.63,12.64,12.64,0,0,1,4.09,3.22c-5.64,5.23-8.36,7.91-13.58,13.36a5.17,5.17,0,0,0,.68,0,6.6,6.6,0,0,0,2.31-.42,9,9,0,0,0,2.78-1.68,14.84,14.84,0,0,0,2.45-2.73c1.74,2.88,2.59,4.32,4.24,7.22a7.25,7.25,0,0,1-3.33,3.08,19.78,19.78,0,0,1-5.64,1.84,24.06,24.06,0,0,1-4.19.37c-.69,0-1.37,0-2.05-.09a14.83,14.83,0,0,1-4.79-1.2,7.11,7.11,0,0,1-3.14-2.64,11.84,11.84,0,0,1-1.6-7.19,19.36,19.36,0,0,1,1.58-6.63,12.32,12.32,0,0,1,2.84-4.44,15.52,15.52,0,0,1,3.71-2.33,16.16,16.16,0,0,1,4.09-1.22,17.18,17.18,0,0,1,2.49-.19m-7,15.45c2.9-3.22,4.39-4.82,7.43-8a4.61,4.61,0,0,0-2.13-.78l-.53,0a5.33,5.33,0,0,0-1.8.31,3.56,3.56,0,0,0-1.67,1,6.51,6.51,0,0,0-1.67,3.86,7.08,7.08,0,0,0,0,1.53c.06.49.18,1.17.35,2m7-18.45a19.34,19.34,0,0,0-3,.23,18.91,18.91,0,0,0-4.85,1.44A18.51,18.51,0,0,0,312.5,134a14.86,14.86,0,0,0-3.65,5.54,22.55,22.55,0,0,0-1.83,7.64,14.79,14.79,0,0,0,2.07,9,10,10,0,0,0,4.42,3.75,17.78,17.78,0,0,0,5.76,1.47c.77.07,1.55.1,2.33.1a27.12,27.12,0,0,0,4.71-.42,22.67,22.67,0,0,0,6.5-2.13,10.08,10.08,0,0,0,4.65-4.43l.69-1.42-.78-1.37c-1.66-2.92-2.54-4.41-4.28-7.29l-.11-.18c1.45-1.39,3-2.86,4.94-4.64l2.09-1.93-1.82-2.19a15.82,15.82,0,0,0-5.05-4,18.34,18.34,0,0,0-6.31-1.84c-.7-.07-1.41-.11-2.1-.11Z" transform="translate(-151.25 -110.3)"/><path class="cls-2" d="M361.72,165.84c-3.43-.58-5.12-.84-8.57-1.33l-1.65-.23.4-1.61c.17-.72.41-1.77.69-3.14a40.39,40.39,0,0,0,.73-14.74,8.25,8.25,0,0,0-.27-1.13,10,10,0,0,0-1.42,1.8,7.81,7.81,0,0,0-.72,1.42,20,20,0,0,0-.66,2c-.2.79-.41,1.74-.61,2.82-.4,2.21-.8,5.05-1.21,8.7l-.16,1.41-1.41-.08c-4.11-.24-6.12-.32-10.24-.41l-1.5,0,0-1.5c0-1.35.07-2.69.13-4s.13-2.61.21-3.73.24-2.42.43-3.73c.08-.57.23-1.38.44-2.4.61-5.22.92-7.85,1.52-13.09l.15-1.35,1.36,0c3.6.07,5.37.12,9,.28l.8,0,.92,1.54c1.35-.18,2.57-.3,3.63-.36l.9,0a14.86,14.86,0,0,1,3,.29,8.94,8.94,0,0,1,4.33,2.1,17.72,17.72,0,0,1,3.71,5.23,14.42,14.42,0,0,1,1.77,6.36,37.87,37.87,0,0,1-.88,8.83,41.44,41.44,0,0,1-1.21,4c-.46,1.26-1.1,2.94-2,5.12l-.45,1.13Z" transform="translate(-151.25 -110.3)"/><path class="cls-3" d="M339.38,133c3.57.07,5.36.12,8.95.28.41.68.61,1,1,1.7,1.75-.26,3.24-.42,4.49-.48l.82,0a13.44,13.44,0,0,1,2.67.26,7.53,7.53,0,0,1,3.62,1.74,16.36,16.36,0,0,1,3.37,4.79,12.92,12.92,0,0,1,1.61,5.69,36.41,36.41,0,0,1-.84,8.48,37.55,37.55,0,0,1-1.17,3.84q-.71,2-1.94,5.07c-3.45-.58-5.17-.85-8.62-1.33.18-.74.42-1.8.71-3.19a42,42,0,0,0,.74-15.3q-.45-2.47-1.32-2.64l-.16,0c-.74,0-1.73.92-2.94,2.75a9.87,9.87,0,0,0-.86,1.69,19.62,19.62,0,0,0-.72,2.2c-.21.82-.42,1.8-.63,2.93-.42,2.29-.82,5.23-1.23,8.8-4.12-.23-6.18-.32-10.28-.41,0-1.34.07-2.67.13-4s.12-2.55.21-3.68.22-2.33.41-3.62c.09-.55.23-1.35.44-2.39.62-5.26.92-7.89,1.53-13.15m-2.67-3-.31,2.7c-.6,5.22-.91,7.85-1.51,13-.21,1-.36,1.84-.44,2.43-.2,1.34-.35,2.63-.44,3.82s-.16,2.38-.22,3.78-.1,2.65-.13,4.05l-.08,3,3,.06c4.09.09,6.09.17,10.18.4l2.83.16.32-2.82c.41-3.6.8-6.41,1.2-8.59.19-1.05.39-2,.58-2.7.15-.54.3-1,.46-1.47a44.17,44.17,0,0,1-1,11.41c-.28,1.34-.51,2.38-.68,3.08l-.79,3.23,3.29.46c3.43.48,5.11.74,8.53,1.32l2.39.41.9-2.26c.86-2.17,1.51-3.86,2-5.17A35.48,35.48,0,0,0,368.92,147a15.69,15.69,0,0,0-1.93-7,19.41,19.41,0,0,0-4-5.66,10.45,10.45,0,0,0-5-2.47,17.17,17.17,0,0,0-3.26-.31l-1,0c-.83,0-1.76.12-2.76.24h0l-.82-1.38-1.61-.07c-3.59-.17-5.45-.22-9-.29l-2.72,0Z" transform="translate(-151.25 -110.3)"/><path class="cls-2" d="M387.21,173.88c-3.64-1-5.42-1.43-9.07-2.3l-1.55-.36.25-.82a12.85,12.85,0,0,1-3.11-.47,11.31,11.31,0,0,1-3.55-1.69,10.51,10.51,0,0,1-2.59-2.61,12.9,12.9,0,0,1-2-5.79,19.12,19.12,0,0,1,.45-6.64,13.81,13.81,0,0,1,5.77-8.71,20.7,20.7,0,0,1,7-3,14.94,14.94,0,0,1,3-.31,13.31,13.31,0,0,1,3.57.48c1.69-5.91,2.67-9.33,4.48-15.68l.28-1,1-.11c4.39-.5,6.54-.71,10.95-1.06l2.21-.17-.65,2.11q-4.51,14.64-9.07,29.27a20.78,20.78,0,0,1-.71,2.72,18.54,18.54,0,0,1-.72,1.9c-1.63,5.25-2.46,7.9-4.11,13.18l-.43,1.38Zm-6.19-24a5.13,5.13,0,0,0-1.38,1.13,3.39,3.39,0,0,0-.7,1.26,2.45,2.45,0,0,0,.61,2.39,4.89,4.89,0,0,0,1.6,1.34l.63-2.13a3.47,3.47,0,0,1-.32-.34l-.08-.1a4,4,0,0,1-.24-3.46l.06-.19Z" transform="translate(-151.25 -110.3)"/><path class="cls-3" d="M402.21,125.37q-4.51,14.69-9.09,29.36a17.75,17.75,0,0,1-.67,2.59,15.46,15.46,0,0,1-.7,1.83c-1.65,5.31-2.48,8-4.14,13.28-3.65-1-5.47-1.44-9.13-2.31l.4-1.32a13.32,13.32,0,0,1-1.65.11,11.35,11.35,0,0,1-3.09-.42,10,10,0,0,1-3.09-1.47,9.12,9.12,0,0,1-2.23-2.24,11.51,11.51,0,0,1-1.72-5.11,17.38,17.38,0,0,1,.42-6.11,12.3,12.3,0,0,1,5.12-7.81,19.44,19.44,0,0,1,6.48-2.76,13.32,13.32,0,0,1,2.7-.28,12,12,0,0,1,3.38.48c.54.16.94.29,1.21.4,2-6.86,2.95-10.3,4.9-17.17,4.33-.49,6.51-.7,10.9-1m-20,32.42c.55-1.85.83-2.77,1.38-4.63a1.77,1.77,0,0,1-.92-.6,2.63,2.63,0,0,1-.05-2.19,3.81,3.81,0,0,1,2.63-2.77,6,6,0,0,0-1-.09,7.09,7.09,0,0,0-1.5.16,8.21,8.21,0,0,0-2.38.88,6.74,6.74,0,0,0-1.79,1.46,4.87,4.87,0,0,0-1,1.83,4,4,0,0,0,.9,3.74,5.91,5.91,0,0,0,2.9,2,5.23,5.23,0,0,0,.88.16M406.38,122l-4.41.35c-4.38.35-6.64.56-11,1.06l-2,.23-.55,1.93-4.09,14.32a15.12,15.12,0,0,0-2.52-.21,16.39,16.39,0,0,0-3.31.34,22.3,22.3,0,0,0-7.49,3.18c-3.19,2-5.34,5.28-6.41,9.62a20.39,20.39,0,0,0-.49,7.16,14.59,14.59,0,0,0,2.2,6.43l0,0v0a12.13,12.13,0,0,0,3,3,12.65,12.65,0,0,0,4,1.91,12.93,12.93,0,0,0,1.55.35l-.18.59,3.09.73c3.64.87,5.42,1.31,9,2.29l2.79.75.86-2.75c1.64-5.25,2.47-7.91,4.08-13.09.22-.49.46-1.13.74-2a20.67,20.67,0,0,0,.75-2.83c3-9.67,6.06-19.49,9-29.19l1.3-4.22Z" transform="translate(-151.25 -110.3)"/><path class="cls-2" d="M411.9,183.32c-3.57-1.31-5.32-1.92-8.91-3.11l-1.51-.5.32-.79a13.21,13.21,0,0,1-3.08-.75,11.56,11.56,0,0,1-3.41-2,10.67,10.67,0,0,1-2.38-2.82,13,13,0,0,1-1.48-6,18.79,18.79,0,0,1,1-6.57,13.75,13.75,0,0,1,6.52-8.18,21.06,21.06,0,0,1,7.26-2.34,17.47,17.47,0,0,1,1.76-.1,13.83,13.83,0,0,1,5,.94c.57.23,1,.42,1.32.58l.07,0c3.77-.16,5.85-.2,9.87-.23l2.26,0s-3.76,9.1-5.68,13.72a19.45,19.45,0,0,1-.95,2.64c-.35.81-.64,1.41-.88,1.84-2.08,5.08-3.14,7.66-5.24,12.77l-.55,1.34Zm-4.18-24.52a5,5,0,0,0-1.48,1,3.2,3.2,0,0,0-.81,1.19,2.44,2.44,0,0,0,.42,2.43,4.82,4.82,0,0,0,1.5,1.49l.81-2.06c-.1-.12-.2-.24-.29-.37l-.07-.11a4,4,0,0,1,.05-3.47l.08-.2Z" transform="translate(-151.25 -110.3)"/><path class="cls-3" d="M408,151.7a12.14,12.14,0,0,1,4.49.84,10,10,0,0,1,1.17.51l.11.23c4.18-.17,6.29-.22,10.54-.25-1.94,4.69-2.91,7-4.86,11.72a18.48,18.48,0,0,1-.89,2.53,16.26,16.26,0,0,1-.86,1.76c-2.11,5.15-3.16,7.72-5.28,12.87-3.57-1.31-5.36-1.93-9-3.12l.51-1.29h-.51a12,12,0,0,1-4.21-.74,10.19,10.19,0,0,1-3-1.74,8.93,8.93,0,0,1-2-2.43,11.31,11.31,0,0,1-1.29-5.25,17.17,17.17,0,0,1,.93-6,12.28,12.28,0,0,1,5.8-7.33,19.36,19.36,0,0,1,6.73-2.18,14.39,14.39,0,0,1,1.59-.09m.2,15.13,1.79-4.5a1.79,1.79,0,0,1-.88-.69,2.58,2.58,0,0,1,.14-2.18,3.83,3.83,0,0,1,2.88-2.53,6.76,6.76,0,0,0-2.57-.15,7.81,7.81,0,0,0-2.46.66,6.64,6.64,0,0,0-1.92,1.3,4.88,4.88,0,0,0-1.16,1.73,4,4,0,0,0,.59,3.81,6,6,0,0,0,2.73,2.3,6.93,6.93,0,0,0,.86.25M408,148.7h0a18.32,18.32,0,0,0-1.94.11,22.58,22.58,0,0,0-7.77,2.5c-3.36,1.75-5.8,4.79-7.25,9a20.06,20.06,0,0,0-1.09,7.09A14.52,14.52,0,0,0,391.6,174l0,0v0a12,12,0,0,0,2.7,3.22,12.91,12.91,0,0,0,3.86,2.26,13.78,13.78,0,0,0,1.54.49l-.23.58,3,1c3.58,1.18,5.32,1.79,8.87,3.09l2.71,1,1.09-2.67,5.21-12.68a20.81,20.81,0,0,0,.91-1.9,22.1,22.1,0,0,0,1-2.75c1.9-4.57,2.87-6.91,4.78-11.54l1.73-4.18-4.52,0c-3.85,0-6,.07-9.53.21-.32-.15-.71-.31-1.18-.5a15.23,15.23,0,0,0-5.58-1Z" transform="translate(-151.25 -110.3)"/></svg>