<svg id="Capa_1" data-name="Capa 1" xmlns="http://www.w3.org/2000/svg" viewBox="0 0 152.29 140"><path d="M807,357.49c.22,1.22.41,2.44.66,3.65.36,1.69,1,3.33,1.21,5,.8,5.35,2.23,10.59,2.81,16A25.33,25.33,0,0,1,809,396.94a16.82,16.82,0,0,1-2.08,3.08,9.13,9.13,0,0,1-5,2.94,12.39,12.39,0,0,1-7-.17c-2.48-.88-5-1.71-7.4-2.81a15.27,15.27,0,0,0-4.48-1.4,22.42,22.42,0,0,0-11.69,1.28c-2.28,1-4.53,2-6.88,2.79a17.89,17.89,0,0,1-5.15.66,12.7,12.7,0,0,1-3.91-.4,8.88,8.88,0,0,1-4.57-3A20.67,20.67,0,0,1,746,383.24c.75-5.36,2-10.63,3-15.95.49-2.68.92-5.38,1.38-8.06.05-.28,0-.59.33-.86.12.39.25.74.35,1.11a23.24,23.24,0,0,0,9.4,13.42c.81.57,1.63,1.13,2.47,1.66a10.87,10.87,0,0,1,2.6,2.08c.73.84,1.11.84,2,.12a1.27,1.27,0,0,1,1.23-.38c.33.08.8.13.94-.11a2.72,2.72,0,0,1,2.22-1.2c.16,0,.36-.25.42-.42a1.63,1.63,0,0,1,1-1,1.06,1.06,0,0,0,.65-1.41,5,5,0,0,1-.1-2.79,6.1,6.1,0,0,0-.34-2.69,48.74,48.74,0,0,0-4.27-11.59c-1.69-3.32-3.42-6.61-5.15-9.9-.23-.45-.39-1.11-1.14-.82-.51.19-.51.54,0,1.48,2,3.77,4,7.49,5.84,11.35a42.87,42.87,0,0,1,3.68,11.14,2.12,2.12,0,0,1,0,1.09,3.81,3.81,0,0,0,0,2.45c.13.41,0,.61-.33.77a1.31,1.31,0,0,0-.69.52,1,1,0,0,1-1.2.59,1,1,0,0,0-1.13.74c-.13.41-.37.48-.76.42a1.72,1.72,0,0,0-1.49.45c-.23.23-.46.32-.71,0a13.53,13.53,0,0,0-3.36-2.51,28.84,28.84,0,0,1-6.22-5.28,24.09,24.09,0,0,1-4.82-10.35,32.69,32.69,0,0,1-.14-12.43c.42-3,1.1-5.92,1.4-8.91a.3.3,0,0,1,.34.07,28.27,28.27,0,0,0,13.41,6.61,51.32,51.32,0,0,0,29.4-2.07,22.78,22.78,0,0,0,7.9-4.72c.12.09.23.13.23.18a36.59,36.59,0,0,0,1.14,7.21,34.31,34.31,0,0,1-.17,14.27c-.23,1.1-.45,2.19-.72,3.27a13.85,13.85,0,0,1-3.34,6.14,42.42,42.42,0,0,1-6.3,5.6,11.53,11.53,0,0,0-3.13,2.92,1.86,1.86,0,0,0-2-.68.5.5,0,0,1-.36,0,2.79,2.79,0,0,0-1.93-.92c-.75,0-1-1-1.71-1.11-.3-.05-.25-.39-.21-.63a3.09,3.09,0,0,0-.34-2,2.66,2.66,0,0,1-.06-1.58,38.11,38.11,0,0,1,3.91-12.08,96.09,96.09,0,0,1,5.77-10,6.19,6.19,0,0,0,.58-.95.61.61,0,0,0-.31-.84.58.58,0,0,0-.77.17,2.32,2.32,0,0,0-.3.4,80.08,80.08,0,0,0-8.32,15.61A33.79,33.79,0,0,0,784,367.9a4.75,4.75,0,0,0,.28,3.15,2.05,2.05,0,0,1,0,1.34c-.12,1,0,1.27.94,1.57.7.22.88,1,1.53,1.2s1.34-.06,1.78.67c.23.38.74.33,1.15.28a1.52,1.52,0,0,1,1.34.41c.75.71,1.26.68,1.85-.15a12.4,12.4,0,0,1,3-2.76,47.88,47.88,0,0,0,6.32-5.58,17.17,17.17,0,0,0,4.32-9.17c.09-.48.21-1,.32-1.44Z" transform="translate(-719.05 -266.59)"/><path d="M817.41,355.84c-.36-.56-.56-.87-.75-1.18a.75.75,0,0,0-.81-.43.69.69,0,0,0-.52.63c-.07.32-.12.64-.19,1-1.14-1-1.14-1-2-.12-.33-.48-.68-.94-1-1.43s-.79-.93-1.54-.58c-.47-2.11-.89-4.13-1.4-6.13-.16-.66,0-.89.63-1,2.32-.41,4.64-.78,7-1,1.81-.18,3.62-.28,5.44-.34,1.51,0,1.76-.45,1.16-1.85a205.68,205.68,0,0,1-9.32-27.3c-.37-1.36-.37-1.37.94-1.7q15.06-3.89,30.39-6.58c6.84-1.2,13.7-2.22,20.59-3.12,1.75-.23,3.52-.41,5.26-.61a1.47,1.47,0,0,1-.15,1.15A136.91,136.91,0,0,1,858.47,333a1.4,1.4,0,0,1-1.58.79c-4.48-.42-9-.75-13.47-1.18-3.29-.31-6.57-.71-9.86-1.08a6.23,6.23,0,0,0-.74-.09.86.86,0,0,0-.88,1.16c.09.4.25.79.38,1.18,2.25,7,4.23,14.16,5.86,21.38.29,1.3.3,1.27-1,1.17-4.87-.35-9.72-.9-14.55-1.6l-3.55-.54C817.53,354,817.38,354.1,817.41,355.84Z" transform="translate(-719.05 -266.59)"/><path d="M749.68,321.79a4.25,4.25,0,0,1,.23-1.87,3.22,3.22,0,0,1,4.19-1.59,5.45,5.45,0,0,1,2,1.37,11.41,11.41,0,0,1,3.2,10.21c-.67,3.72-3.72,4.71-6.57,2.23a5.81,5.81,0,0,1-1.62-2.29A24,24,0,0,1,749.68,321.79Z" transform="translate(-719.05 -266.59)"/><path d="M807.6,322.93A19.23,19.23,0,0,1,806,330.4a5.6,5.6,0,0,1-3.13,3,3.1,3.1,0,0,1-4.15-1.37,6,6,0,0,1-.88-2.82,11.85,11.85,0,0,1,3.32-9.28,5.52,5.52,0,0,1,2.62-1.57,3,3,0,0,1,3.77,2.7C807.63,321.69,807.6,322.31,807.6,322.93Z" transform="translate(-719.05 -266.59)"/><path d="M809.59,363.14c.79,0,1.49,0,2.19,0,1.11,0,1.41-.43,1.12-1.48-.18-.64-.39-1.26-.61-1.89a7,7,0,0,1-.31-3c.5.21.61.68.86,1,.69.92.87.94,1.7,0,.38.29.53,1,1.21.78s.34-.95.71-1.45a5.63,5.63,0,0,1,.83,1.18c.19.27.29.71.6.76.86.14.89.8,1.07,1.42.61,2.22,1.13,4.48,1.62,6.73a2.25,2.25,0,0,1,.07,1.3c-.47,0-1,0-1.44-.08-2.64-.21-5.27-.45-7.91-.64a.89.89,0,0,1-.95-.86C810.13,365.67,809.86,364.47,809.59,363.14Z" transform="translate(-719.05 -266.59)"/><path d="M843.31,282.2a41.43,41.43,0,0,1-15,10.1A21.21,21.21,0,0,0,831.7,282,54,54,0,0,1,843.31,282.2Z" transform="translate(-719.05 -266.59)"/><path d="M731.59,281.42c-5.3-4-8.93-9.23-12.54-14.83a49.67,49.67,0,0,1,11,3,10.19,10.19,0,0,0-.14,6.61,42.31,42.31,0,0,0,1.42,4.48C731.41,280.89,731.5,281.15,731.59,281.42Z" transform="translate(-719.05 -266.59)"/><path d="M800.1,406.56c-1.61,0-3.22,0-4.83,0-.4,0-.9,0-1-.49a2.66,2.66,0,0,1,.26-1.79c.11-.26.44-.07.67,0a15.73,15.73,0,0,0,3.56.39,15.21,15.21,0,0,0,3.92-.49,1.29,1.29,0,0,1,1.6.49c.28.41.68.74.92,1.16s.08.76-.49.77c-1.52,0-3,0-4.58,0Z" transform="translate(-719.05 -266.59)"/><path d="M753.94,406.3c.8-.92,1.47-1.89,3.06-1.74a23.06,23.06,0,0,0,6.78-.37c.82-.17.83-.14,1.07.73a4.69,4.69,0,0,1,.17.72c.05.67-.14.91-.82.93-.83,0-1.66,0-2.48,0H754Z" transform="translate(-719.05 -266.59)"/><path d="M811,361.28c-.36.22-.7.11-1,.15s-.59-.21-.65-.58a93.61,93.61,0,0,1-1.33-9.44.94.94,0,0,1,.1-.5C809,354.38,809.91,357.86,811,361.28Z" transform="translate(-719.05 -266.59)"/><path d="M829.26,282.06a73.28,73.28,0,0,0-13.33,2.11,179.46,179.46,0,0,0-19.4,6.75,2.32,2.32,0,0,1-2.56-.16,4.17,4.17,0,0,0-1-.52,38.14,38.14,0,0,0-13-3,34.52,34.52,0,0,0-17.76,3.66c-1.28.67-1.63.58-2.6-.44-1.6-1.67-3.2-3.34-4.78-5a52.68,52.68,0,0,0-16.25-12.23c-2.09-1-4.2-1.93-6.34-2.81-.82-.33-1.1-.2-1.37.62a3,3,0,0,0-.12.6,11,11,0,0,0,.12,3,40.7,40.7,0,0,0,2.79,8.32,4.82,4.82,0,0,0,1.33,1.74,87.68,87.68,0,0,0,15.89,10.75,21.78,21.78,0,0,1,2.12,1.29,1.82,1.82,0,0,1,.76,2.47c-.3.86-.67,1.7-.92,2.57a93.6,93.6,0,0,0-2.73,13.46,7.12,7.12,0,0,0-.18,2.51,4.77,4.77,0,0,1,5.32-.27,7.69,7.69,0,0,1,2.13,1.67,13.13,13.13,0,0,1,3.43,8.68,8.53,8.53,0,0,1-1.09,4.77,4.4,4.4,0,0,1-5,2.17c-.2,0-.4-.06-.7-.1a4.4,4.4,0,0,0,1.26,1.28,26.62,26.62,0,0,0,7.54,4.21,40.64,40.64,0,0,0,11.75,2.31,49.31,49.31,0,0,0,20-2.61,25.16,25.16,0,0,0,7.25-3.72,3.92,3.92,0,0,0,1.24-1.23c-.31,0-.47,0-.63.07a4.28,4.28,0,0,1-4.73-1.9,5.44,5.44,0,0,1-.95-2.14A12.71,12.71,0,0,1,800,319.27c2.16-2.4,4.28-2.8,7.25-1.59a8.13,8.13,0,0,0-.21-2.56,64.52,64.52,0,0,0-3.38-14.95c-.78-2-.35-2.63,1.81-2.75A73,73,0,0,0,823.92,294a5.79,5.79,0,0,0,3-2.21,19.89,19.89,0,0,0,3.18-7.47,6.34,6.34,0,0,0,.2-1.22C830.36,282.15,830.18,282,829.26,282.06ZM777.2,319a4.33,4.33,0,0,1,1.63-.25,3,3,0,0,1,1.51.28.86.86,0,0,1,.38,1.34,2.07,2.07,0,0,1-1.92,1.12,2.56,2.56,0,0,1-2.06-1.17A.89.89,0,0,1,777.2,319Zm-15.29-.16a5.32,5.32,0,0,1-5.28-5.54,5.86,5.86,0,0,1,5.75-5.92,5.42,5.42,0,0,1,5.28,5.58A5.77,5.77,0,0,1,761.91,318.84Zm26.89,6.66a4.78,4.78,0,0,1-2.76,2.69,5.33,5.33,0,0,1-1.75.25,4.52,4.52,0,0,1-2.87-.9c-2.87-1.8-2.61-1.31-4.9-.07a6.76,6.76,0,0,1-3.9,1,5,5,0,0,1-4-2.8c-.2-.34-.25-.74.19-1a.67.67,0,0,1,.95.29,9.91,9.91,0,0,0,.66.9,3.42,3.42,0,0,0,3.8,1.11,8.49,8.49,0,0,0,2.44-1.18,3.74,3.74,0,0,1,4.61.06,10.72,10.72,0,0,0,1.39.81,3.35,3.35,0,0,0,4.63-1.25c.11-.17.2-.36.3-.54.21-.37.5-.58.91-.37A.65.65,0,0,1,788.8,325.5Zm6.46-6.5a5.83,5.83,0,0,1-5.63-6,5.33,5.33,0,0,1,5.4-5.43,5.81,5.81,0,0,1,5.64,6A5.36,5.36,0,0,1,795.26,319Z" transform="translate(-719.05 -266.59)"/><path d="M762,317.52a4.09,4.09,0,0,1-4.05-4.14,4.58,4.58,0,0,1,4.38-4.62,4,4,0,0,1,4,4.14A4.52,4.52,0,0,1,762,317.52Z" transform="translate(-719.05 -266.59)"/><path d="M799.33,313.42a4.08,4.08,0,0,1-3.91,4.26,4.63,4.63,0,0,1-4.49-4.54,4.21,4.21,0,0,1,4-4.29A4.61,4.61,0,0,1,799.33,313.42Z" transform="translate(-719.05 -266.59)"/></svg>