<?xml version="1.0" encoding="utf-8"?>
<!-- Generator: Adobe Illustrator 25.4.1, SVG Export Plug-In . SVG Version: 6.00 Build 0)  -->
<svg version="1.1" id="Capa_1" xmlns="http://www.w3.org/2000/svg" xmlns:xlink="http://www.w3.org/1999/xlink" x="0px" y="0px"
	 viewBox="0 0 130.6 130.8" style="enable-background:new 0 0 130.6 130.8;" xml:space="preserve">
<style type="text/css">
	.st0{fill:#ffffff;}
	#Capa_1{fill:#fff}
</style>
<path d="M130.6,64.7l0-1.5c0-2.9-0.2-5.8-0.7-8.6c-1.1-6.3-3-12.5-5.9-18.2c-6.4-12.8-17-23.4-29.8-29.8c-4.6-2.3-9.5-4-14.5-5.1
	C73.7,0,67.5-0.1,61.8,0c-2,0-4,0.2-6,0.5c-16.1,2.4-30.7,10.6-41,23.1c-4.2,5.1-7.6,10.7-10.1,16.8c-2.1,5-3.5,10.2-4.3,15.5
	c-0.1,0.9-0.2,1.7-0.2,2.5c0,0.7-0.1,1.4-0.2,2.1l0,9.4l0,0.5c0.1,0.4,0.1,0.8,0.1,1.3c0,0.5,0,1.1,0.1,1.6c0.8,7.4,3,14.5,6.3,21.1
	c6.2,12.4,15.9,22.4,28.2,28.9c10,5.2,19.7,7.6,29.7,7.3h1.8c0.6,0,1.1,0,1.7,0c1.8,0,3.7-0.1,5.5-0.3c25.6-3.2,47.1-21.3,54.6-46
	c1.3-4,2.1-8.2,2.5-12.4C130.6,69.6,130.6,67.1,130.6,64.7z M78.9,65.4c0,7.5-6.1,13.7-13.7,13.7c0,0,0,0-0.1,0
	c-7.4,0-13.5-6-13.5-13.5v-0.2c0-3.6,1.4-7.1,4-9.7c2.6-2.6,6-4,9.6-4c0,0,0,0,0,0c3.6,0,7.1,1.4,9.6,4
	C77.5,58.3,78.9,61.7,78.9,65.4z M121.5,70.2L121.5,70.2L121.5,70.2L121.5,70.2z M117.4,53.7c0.4,1.7,0.7,3.4,0.9,5l-28.5,0
	c-1.6-6.1-5.4-11.3-10.7-14.7c-5.7-3.7-12.5-4.9-19.1-3.5C51,42.4,43.8,49,41,57.6c-0.1,0.4-0.2,0.7-0.3,1.1H12.2
	c0.4-3.6,1.2-7.2,2.5-10.6c6.9-18.6,20.2-30.4,39.3-35c4.8-1.1,9.8-1.5,14.8-1.1c11.8,0.7,23.1,5.5,31.9,13.4
	C109.2,32.9,114.9,42.7,117.4,53.7z M12.3,72h28.5c2.6,9.3,9,15.5,18.4,18c6.3,1.7,13.2,0.7,19.1-2.8c5.8-3.4,10-9,11.6-15.2h28.5
	c-0.7,5.7-2.3,11.2-4.9,16.5c-6.2,13-17.6,23.1-31.3,27.6c-4.8,1.6-9.9,2.5-15,2.7c-20.9,0.7-40.4-10.9-49.7-29.6
	C14.7,83.8,13,78,12.3,72z"/>
<path class="st0" d="M65.3,74.7c5.1,0,9.3-4.2,9.3-9.3c0.2-5.1-3.8-9.4-9-9.6c-5.1-0.2-9.4,3.8-9.6,9c0,0.2,0,0.4,0,0.6
	C56,70.5,60.1,74.7,65.3,74.7z"/>
</svg>
