<svg id="Capa_1" data-name="Capa 1" xmlns="http://www.w3.org/2000/svg" viewBox="0 0 107.78 110.27"><defs><style>.cls-1{fill:#fff;}#Capa_1{fill:#fff}</style></defs><path class="cls-1" d="M105.2,58.49,118,93.58a.42.42,0,0,0,.26.26l35.09,12.77a.44.44,0,0,1,0,.83l-35.09,12.77a.42.42,0,0,0-.26.26L105.2,155.56a.43.43,0,0,1-.82,0L91.61,120.47a.44.44,0,0,0-.26-.26l-35.1-12.77a.44.44,0,0,1,0-.83l35.1-12.77a.44.44,0,0,0,.26-.26l12.77-35.09A.43.43,0,0,1,105.2,58.49Z" transform="translate(-55.97 -45.58)"/><path class="cls-1" d="M128.05,45.69l4.62,12.68a.14.14,0,0,0,.09.09l12.68,4.62a.16.16,0,0,1,0,.3L132.76,68a.15.15,0,0,0-.09.1l-4.62,12.68a.16.16,0,0,1-.3,0l-4.61-12.68a.17.17,0,0,0-.1-.1l-12.68-4.61a.16.16,0,0,1,0-.3L123,58.46a.15.15,0,0,0,.1-.09l4.61-12.68A.16.16,0,0,1,128.05,45.69Z" transform="translate(-55.97 -45.58)"/><path class="cls-1" d="M149.34,71l3.8,10.45a.14.14,0,0,0,.08.07l10.44,3.81a.13.13,0,0,1,0,.24l-10.44,3.8a.16.16,0,0,0-.08.08l-3.8,10.44a.13.13,0,0,1-.24,0l-3.81-10.44a.14.14,0,0,0-.07-.08l-10.45-3.8a.13.13,0,0,1,0-.24l10.45-3.81a.12.12,0,0,0,.07-.07L149.1,71A.13.13,0,0,1,149.34,71Z" transform="translate(-55.97 -45.58)"/></svg>