<svg id="visual" viewBox="0 0 1980 1080" width="1980" height="1080" xmlns="http://www.w3.org/2000/svg" xmlns:xlink="http://www.w3.org/1999/xlink" version="1.1"><rect x="0" y="0" width="1980" height="1080" fill="#002233"></rect><path d="M0 769L82.5 767C165 765 330 761 495 775C660 789 825 821 990 838.2C1155 855.3 1320 857.7 1485 836.3C1650 815 1815 770 1897.5 747.5L1980 725L1980 1081L1897.5 1081C1815 1081 1650 1081 1485 1081C1320 1081 1155 1081 990 1081C825 1081 660 1081 495 1081C330 1081 165 1081 82.5 1081L0 1081Z" fill="#0066FF" stroke-linecap="round" stroke-linejoin="miter"></path></svg>