<svg id="Capa_1" data-name="Capa 1" xmlns="http://www.w3.org/2000/svg" viewBox="0 0 193.61 187.21"><defs><style>.cls-1{fill:#0c0c0c;}.cls-2{fill:#f9f9f9;}.cls-3{fill:#ddd;}.cls-4{fill:#f8f8f8;}.cls-5{fill:#ec1b25;}.cls-6{fill:#7c7c7c;}.cls-7{fill:#cdcdcd;}</style></defs><path class="cls-1" d="M193.61,80.31a.24.24,0,0,0-.24-.24l-58.1,0A28.77,28.77,0,0,0,106.6,51.47h-.25A28.88,28.88,0,0,0,86,59.76a28.66,28.66,0,0,0-8.56,20.35l-47.5,0V27a20,20,0,0,0-9.11-16.82L6.16.64A4,4,0,0,0,.64,1.85a4.05,4.05,0,0,0,1.2,5.58l14.65,9.49a11.91,11.91,0,0,1,5.44,10V80.19l.29,10.52a83.53,83.53,0,0,0,8.28,28,86.09,86.09,0,0,0,19.15,25.57,83.55,83.55,0,0,0,17.84,12.7c12.2,6.39,25.1,10.08,39,9.77H109a67.24,67.24,0,0,0,9.31-.35,85.25,85.25,0,0,0,31.22-10.3,87.06,87.06,0,0,0,41-51.79,77.85,77.85,0,0,0,2.86-15.16C193.61,86.18,193.62,83.25,193.61,80.31Zm-110.18-.2c0-.65,0-1.29.1-1.93,0-.05,0-.1,0-.15.07-.73.18-1.45.31-2.15,0,0,0-.06,0-.09a21.57,21.57,0,0,1,.53-2.14.08.08,0,0,0,0,0,22.81,22.81,0,0,1,21.93-16.14h.2a22.67,22.67,0,0,1,3.51.3l.16,0c.29,0,.58.09.86.15A22.58,22.58,0,0,1,127.37,71.1l0,.07c.12.28.23.56.34.85,0,.08.07.17.1.26l.24.69c0,.14.09.28.14.42s.11.39.17.58l.15.55.12.49c.05.21.1.43.14.65s.06.29.08.43.09.48.12.72l.06.41.09.74c0,.14,0,.28,0,.42s0,.5.05.76,0,.28,0,.42,0,.36,0,.54v.35a22.87,22.87,0,0,1-22.91,22.91h-.06a22.87,22.87,0,0,1-22.87-23c0-.1,0-.2,0-.3ZM183.83,87a73.73,73.73,0,0,1-7.4,27.06q-14.53,29.35-45.53,40.1a75.11,75.11,0,0,1-21.86,3.9A77.74,77.74,0,0,1,36.77,115a75,75,0,0,1-7.56-25.55,25.09,25.09,0,0,1-.28-2.61c0-1.33.18-1.41,1.28-1.4,7.39,0,14.78,0,22.16,0s14.86,0,22.28,0c1,0,1.31.34,1.53,1.24,2.94,12.43,10.58,20.43,22.89,23.75,16,4.32,33.38-6.16,37.27-22.32.2-.84.13-2,.66-2.46s1.76-.17,2.67-.17h42.76C184,85.43,184,85.43,183.83,87Z" transform="translate(0)"/><path class="cls-2" d="M129.27,80.1v.35a22.87,22.87,0,0,1-22.91,22.91h-.06a22.87,22.87,0,0,1-22.87-23c0-.1,0-.2,0-.3h0c0-.65,0-1.29.1-1.93,0-.05,0-.1,0-.15.07-.73.18-1.45.31-2.15,0,0,0-.06,0-.09a21.57,21.57,0,0,1,.53-2.14.08.08,0,0,0,0,0,22.81,22.81,0,0,1,21.93-16.14h.2a22.67,22.67,0,0,1,3.51.3l.16,0c.29,0,.58.09.86.15A22.58,22.58,0,0,1,127.37,71.1l0,.07c.12.28.23.56.34.85,0,.08.07.17.1.26l.24.69c0,.14.09.28.14.42s.11.39.17.58l.15.55.12.49c.05.21.1.43.14.65s.06.29.08.43.09.48.12.72l.06.41.09.74c0,.14,0,.28,0,.42s0,.5.05.76,0,.28,0,.42S129.27,79.92,129.27,80.1Z" transform="translate(0)"/><path class="cls-3" d="M183.83,87a73.73,73.73,0,0,1-7.4,27.06q-14.53,29.35-45.53,40.1a75.11,75.11,0,0,1-21.86,3.9A77.74,77.74,0,0,1,36.77,115a75,75,0,0,1-7.56-25.55,25.09,25.09,0,0,1-.28-2.61c0-1.33.18-1.41,1.28-1.4,7.39,0,14.78,0,22.16,0s14.86,0,22.28,0c1,0,1.31.34,1.53,1.24,2.94,12.43,10.58,20.43,22.89,23.75,16,4.32,33.38-6.16,37.27-22.32.2-.84.13-2,.66-2.46s1.76-.17,2.67-.17h42.76C184,85.43,184,85.43,183.83,87Z" transform="translate(0)"/><path class="cls-1" d="M45.94,170.05v-2.68c.06-.45.05-.9.11-1.35a18.49,18.49,0,0,1,4.06-9.12,18.53,18.53,0,0,1,5.46-4.5,18.89,18.89,0,0,1,6.16-2.05,11.6,11.6,0,0,1,1.66-.13,18,18,0,0,1,9.22,1.85,19.3,19.3,0,0,1,4.4,3,18.73,18.73,0,0,1,4,5.4,18.32,18.32,0,0,1,1.66,5.16,13.91,13.91,0,0,1,.19,2.41c0,.85,0,1.7-.05,2.55a16.5,16.5,0,0,1-.69,3.48,18.36,18.36,0,0,1-3.13,6,18.56,18.56,0,0,1-5.62,4.81,18.35,18.35,0,0,1-6.72,2.2,14.8,14.8,0,0,1-2,.08h-.55a17.26,17.26,0,0,1-8.39-2.09,17.88,17.88,0,0,1-3.85-2.72,18.21,18.21,0,0,1-4.12-5.46A17.54,17.54,0,0,1,46,171C46,170.67,46,170.36,45.94,170.05Z" transform="translate(0)"/><path class="cls-4" d="M52.77,169.8h4.8c.22,0,.28.07.33.27a6.5,6.5,0,0,0,4.93,5.11,6.64,6.64,0,0,0,8-4.8c.05-.19,0-.43.15-.53s.37,0,.57,0h9.21c.33,0,.33,0,.3.34A15.92,15.92,0,0,1,79.49,176a16.62,16.62,0,0,1-9.81,8.64,16.31,16.31,0,0,1-4.71.84,16.75,16.75,0,0,1-15.56-9.28,16.08,16.08,0,0,1-1.62-5.5,3.55,3.55,0,0,0-.07-.57c-.07-.27,0-.3.28-.3Z" transform="translate(0)"/><path class="cls-5" d="M52.77,167.63H48c-.32,0-.31,0-.29-.33a14.48,14.48,0,0,1,.84-4,16.6,16.6,0,0,1,12.31-10.94A15.28,15.28,0,0,1,65.5,152a16.81,16.81,0,0,1,15.24,13,17.75,17.75,0,0,1,.37,2.41c0,.11,0,.18-.15.17H71.29c-.26,0-.34-.08-.39-.32a6.64,6.64,0,0,0-12.83-.61,5.42,5.42,0,0,0-.19.72c0,.17-.09.21-.26.21Z" transform="translate(0)"/><path class="cls-4" d="M64.4,173.66a4.94,4.94,0,1,1,4.94-4.93A4.92,4.92,0,0,1,64.4,173.66Z" transform="translate(0)"/><path class="cls-6" d="M67.16,168.72a2.76,2.76,0,0,1-5.51,0,2.76,2.76,0,1,1,5.51,0Z" transform="translate(0)"/><path class="cls-7" d="M64.41,166.33a2.39,2.39,0,1,1-2.4,2.35A2.42,2.42,0,0,1,64.41,166.33Z" transform="translate(0)"/><path class="cls-1" d="M129.91,170.05v-2.68c.06-.45.05-.9.11-1.35a18,18,0,0,1,1.21-4.39,18.23,18.23,0,0,1,2.85-4.73,18.53,18.53,0,0,1,5.46-4.5,18.89,18.89,0,0,1,6.16-2.05,11.6,11.6,0,0,1,1.66-.13,18,18,0,0,1,9.22,1.85,19.08,19.08,0,0,1,4.4,3,18.73,18.73,0,0,1,4,5.4,18.32,18.32,0,0,1,1.66,5.16,13.91,13.91,0,0,1,.19,2.41c0,.85,0,1.7-.05,2.55a16.5,16.5,0,0,1-.69,3.48,18.53,18.53,0,0,1-8.75,10.82,18.35,18.35,0,0,1-6.72,2.2,14.8,14.8,0,0,1-2,.08h-.55a17.26,17.26,0,0,1-8.39-2.09,18.76,18.76,0,0,1-8-8.18,17.54,17.54,0,0,1-1.78-6C129.94,170.67,130,170.36,129.91,170.05Z" transform="translate(0)"/><path class="cls-4" d="M136.74,169.8h4.8c.22,0,.28.07.33.27a6.5,6.5,0,0,0,4.93,5.11,6.64,6.64,0,0,0,8-4.8c.05-.19,0-.43.15-.53s.38,0,.57,0h9.21c.33,0,.33,0,.3.34a15.73,15.73,0,0,1-1.59,5.82,16.62,16.62,0,0,1-9.81,8.64,16.3,16.3,0,0,1-4.7.84,16.76,16.76,0,0,1-15.57-9.28,16.08,16.08,0,0,1-1.62-5.5,3.55,3.55,0,0,0-.06-.57c-.08-.27,0-.3.27-.3Z" transform="translate(0)"/><path class="cls-5" d="M136.74,167.63H132c-.32,0-.31,0-.29-.33a14.48,14.48,0,0,1,.84-4,16.6,16.6,0,0,1,12.31-10.94,15.32,15.32,0,0,1,4.63-.34,16.84,16.84,0,0,1,15.24,13,19.45,19.45,0,0,1,.36,2.41c0,.11,0,.18-.14.17h-9.68c-.26,0-.34-.08-.39-.32A6.64,6.64,0,0,0,142,166.7a4.21,4.21,0,0,0-.18.72c0,.17-.1.21-.27.21Z" transform="translate(0)"/><path class="cls-4" d="M148.37,173.66a4.94,4.94,0,1,1,4.95-4.93A4.92,4.92,0,0,1,148.37,173.66Z" transform="translate(0)"/><path class="cls-6" d="M151.13,168.72a2.75,2.75,0,1,1-5.5,0,2.75,2.75,0,1,1,5.5,0Z" transform="translate(0)"/><path class="cls-7" d="M148.38,166.33a2.39,2.39,0,1,1-2.39,2.35A2.41,2.41,0,0,1,148.38,166.33Z" transform="translate(0)"/><path class="cls-6" d="M119.13,80.41a12.78,12.78,0,1,1-25.56,0,12.78,12.78,0,1,1,25.56,0Z" transform="translate(0)"/><path class="cls-7" d="M106.38,69.33c5.71-.25,11.11,5,11.08,11.07a11.11,11.11,0,1,1-22.21-.18C95.3,74.32,100.57,69.06,106.38,69.33Z" transform="translate(0)"/></svg>